<svg version="1.1" x="0px" y="0px" width="50px" height="50px"
   viewBox="75.2 9 49 49" enable-background="new 75.2 9 49 49" xml:space="preserve">
   <linearGradient id="SVGID_1_" gradientUnits="userSpaceOnUse" x1="76.6361" y1="32.7797" x2="124.1361" y2="32.7797" gradientTransform="matrix(-4.489659e-11 -1 1 -4.489659e-11 66.8861 133.8861)">
     <stop offset="0" style="stop-color:#FFB140"/>
     <stop offset="0.2559" style="stop-color:#FF5445"/>
     <stop offset="0.599" style="stop-color:#FC2B82"/>
     <stop offset="1" style="stop-color:#8E40B7"/>
   </linearGradient>
   <path fill="url(#SVGID_1_)" d="M123.4,21.8v23.5c0,6.6-5.4,12-12,12H87.9c-6.6,0-12-5.4-12-12V21.8c0-6.6,5.4-12,12-12h23.5  C118,9.8,123.4,15.1,123.4,21.8z"/>
   <g id="Instagram_1_">
     <path id="Instagram" fill="#FFFFFF" d="M112.5,23.1c0,1.3-1.1,2.3-2.3,2.3c-1.3,0-2.3-1.1-2.3-2.3s1.1-2.3,2.3-2.3   C111.4,20.7,112.5,21.8,112.5,23.1z M99.7,40c-3.6,0-6.5-2.9-6.5-6.5s2.9-6.5,6.5-6.5c3.6,0,6.5,2.9,6.5,6.5S103.3,40,99.7,40z    M99.7,23.5c-5.5,0-10,4.5-10,10s4.5,10,10,10s10-4.5,10-10C109.7,28,105.2,23.5,99.7,23.5z M99.7,17.5c5.2,0,5.8,0,7.9,0.1   c1.9,0.1,2.9,0.4,3.6,0.7c0.9,0.4,1.6,0.8,2.2,1.5c0.7,0.7,1.1,1.3,1.5,2.2c0.3,0.7,0.6,1.7,0.7,3.6c0.1,2.1,0.1,2.7,0.1,7.9   s0,5.8-0.1,7.9c-0.1,1.9-0.4,2.9-0.7,3.6c-0.4,0.9-0.8,1.6-1.5,2.2c-0.7,0.7-1.3,1.1-2.2,1.5c-0.7,0.3-1.7,0.6-3.6,0.7   c-2.1,0.1-2.7,0.1-7.9,0.1c-5.2,0-5.8,0-7.9-0.1c-1.9-0.1-2.9-0.4-3.6-0.7c-0.9-0.4-1.6-0.8-2.2-1.5c-0.7-0.7-1.1-1.3-1.5-2.2   c-0.3-0.7-0.6-1.7-0.7-3.6c-0.1-2.1-0.1-2.7-0.1-7.9c0-5.2,0-5.8,0.1-7.9c0.1-1.9,0.4-2.9,0.7-3.6c0.4-0.9,0.8-1.6,1.5-2.2   c0.7-0.7,1.3-1.1,2.2-1.5c0.7-0.3,1.7-0.6,3.6-0.7C93.8,17.5,94.4,17.5,99.7,17.5z M99.7,13.9c-5.3,0-6,0-8.1,0.1   c-2.1,0.1-3.5,0.4-4.7,0.9c-1.3,0.5-2.4,1.2-3.5,2.3c-1.1,1.1-1.8,2.2-2.3,3.5c-0.5,1.2-0.8,2.7-0.9,4.7c-0.1,2.1-0.1,2.8-0.1,8.1   s0,6,0.1,8.1c0.1,2.1,0.4,3.5,0.9,4.7c0.5,1.3,1.2,2.4,2.3,3.5c1.1,1.1,2.2,1.8,3.5,2.3c1.2,0.5,2.7,0.8,4.7,0.9   c2.1,0.1,2.8,0.1,8.1,0.1s6,0,8.1-0.1c2.1-0.1,3.5-0.4,4.7-0.9c1.3-0.5,2.4-1.2,3.5-2.3c1.1-1.1,1.8-2.2,2.3-3.5   c0.5-1.2,0.8-2.7,0.9-4.7c0.1-2.1,0.1-2.8,0.1-8.1s0-6-0.1-8.1c-0.1-2.1-0.4-3.5-0.9-4.7c-0.5-1.3-1.2-2.4-2.3-3.5   c-1.1-1.1-2.2-1.8-3.5-2.3c-1.2-0.5-2.7-0.8-4.7-0.9C105.6,14,105,13.9,99.7,13.9z"/>
   </g>
</svg>
